HIERARCHY
ROOT Hips
{
	OFFSET 0.000000 0.000000 0.000000 
	CHANNELS 6 Xposition Yposition Zposition Zrotation Yrotation Xrotation
	JOINT LeftUpLeg
	{
		OFFSET 1.363060 -1.794630 0.839290 
		CHANNELS 3 Zrotation Yrotation Xrotation
		JOINT LeftLeg
		{
			OFFSET 2.448110 -6.726130 0.000000 
			CHANNELS 3 Zrotation Yrotation Xrotation
			JOINT LeftFoot
			{
				OFFSET 2.562200 -7.039590 0.000000 
				CHANNELS 3 Zrotation Yrotation Xrotation
				JOINT LeftToeBase
				{
					OFFSET 0.157640 -0.433110 2.322550 
					CHANNELS 3 Zrotation Yrotation Xrotation
					End Site
					{
						OFFSET 0.000000 0.000000 0.000000 
					}
				}
			}
		}
	}
	JOINT RightUpLeg
	{
		OFFSET -1.305520 -1.794630 0.839290 
		CHANNELS 3 Zrotation Yrotation Xrotation
		JOINT RightLeg
		{
			OFFSET -2.542530 -6.985550 0.000000 
			CHANNELS 3 Zrotation Yrotation Xrotation
			JOINT RightFoot
			{
				OFFSET -2.568260 -7.056230 0.000000 
				CHANNELS 3 Zrotation Yrotation Xrotation
				JOINT RightToeBase
				{
					OFFSET -0.164730 -0.452590 2.363150 
					CHANNELS 3 Zrotation Yrotation Xrotation
					End Site
					{
						OFFSET 0.000000 0.000000 0.000000 
					}
				}
			}
		}
	}
	JOINT Spine
	{
		OFFSET 0.028270 2.035590 -0.193380 
		CHANNELS 3 Zrotation Yrotation Xrotation
		JOINT Spine1
		{
			OFFSET 0.056720 2.048850 -0.042750 
			CHANNELS 3 Zrotation Yrotation Xrotation
			JOINT Neck1
			{
				OFFSET -0.054170 1.746240 0.172020 
				CHANNELS 3 Zrotation Yrotation Xrotation
				JOINT Head
				{
					OFFSET 0.104070 1.761360 -0.123970 
					CHANNELS 3 Zrotation Yrotation Xrotation
					End Site
					{
						OFFSET 0.000000 0.000000 0.000000 
					}
				}
			}
			JOINT LeftArm
			{
				OFFSET 3.362410 1.200890 -0.311210 
				CHANNELS 3 Zrotation Yrotation Xrotation
				JOINT LeftForeArm
				{
					OFFSET 4.983000 -0.000000 -0.000000 
					CHANNELS 3 Zrotation Yrotation Xrotation
					JOINT LeftHand
					{
						OFFSET 3.483560 -0.000000 -0.000000 
						CHANNELS 3 Zrotation Yrotation Xrotation
						JOINT LeftHandIndex1
						{
							OFFSET 0.715260 -0.000000 -0.000000 
							CHANNELS 3 Zrotation Yrotation Xrotation
							End Site
							{
								OFFSET 0.000000 0.000000 0.000000 
							}
						}
					}
				}
			}
			JOINT RightArm
			{
				OFFSET -3.136600 1.374050 -0.404650 
				CHANNELS 3 Zrotation Yrotation Xrotation
				JOINT RightForeArm
				{
					OFFSET -5.241900 -0.000000 -0.000000 
					CHANNELS 3 Zrotation Yrotation Xrotation
					JOINT RightHand
					{
						OFFSET -3.444170 -0.000000 -0.000000 
						CHANNELS 3 Zrotation Yrotation Xrotation
						JOINT RightHandIndex1
						{
							OFFSET -0.622530 -0.000000 -0.000000 
							CHANNELS 3 Zrotation Yrotation Xrotation
							End Site
							{
								OFFSET 0.000000 0.000000 0.000000 
							}
						}
					}
				}
			}
		}
	}
}
MOTION
Frames: 13
Frame Time: 0.041667
16.527850 17.593318 2.956312 -175.402264 3.163886 -171.722867 -8.443853 -19.793771 -32.373335 2.221704 6.268270 22.222397 -0.684710 4.891719 -0.877155 0.557500 -4.782600 -13.289400 29.860176 2.543855 13.587160 -2.230267 -4.614476 15.836114 0.052992 4.447096 -3.274266 -0.315900 3.613000 -9.990500 2.406876 2.774133 6.573867 -5.369268 1.208069 -3.174877 0.512275 -2.634672 5.769347 0.382900 -1.517600 5.236800 -91.969247 7.489667 11.755334 15.131034 -15.697993 -1.843129 -0.692835 -1.123840 3.246839 -7.125000 0.000000 0.000000 89.449224 -1.248628 14.824192 -20.012330 27.975289 -4.569922 0.314358 -0.183220 2.221865 7.125000 0.000000 0.000000 
16.520397 17.584146 2.767906 -176.094167 2.981391 -171.811693 -9.372025 -20.101751 -31.937576 2.338208 6.427564 22.793553 -0.643399 4.463858 -0.066309 0.456800 -4.335900 -12.023500 29.219710 2.730975 13.099351 -2.456258 -5.284257 17.820119 0.077677 4.518102 -2.606065 -0.458100 4.341600 -12.039800 1.932025 2.724489 6.592739 -5.057470 1.185565 -3.177437 0.407746 -2.721947 5.762267 0.331300 -1.560800 5.237900 -91.887630 7.220563 11.718165 14.991764 -15.474578 -1.794229 -0.716315 -1.095514 4.150681 -7.125000 0.000000 0.000000 89.656582 -1.700470 14.060785 -19.769533 27.642620 -4.443929 0.310340 -0.185812 2.682355 7.125000 0.000000 0.000000 
16.517149 17.578318 2.580742 -176.847193 2.707956 -171.994279 -10.453172 -20.289957 -31.361428 2.457938 6.600250 23.387377 -0.604526 4.085491 0.733963 0.556600 -4.778700 -13.278500 28.570412 2.817957 12.502207 -2.731817 -6.026018 20.062814 0.101104 4.500276 -1.791262 -0.512400 4.588100 -12.737500 1.127334 2.560622 6.639667 -4.850488 1.098209 -3.145943 0.867030 -2.779106 5.180000 0.449600 -1.557700 5.038600 -91.552993 6.924771 11.511079 14.902842 -15.349055 -1.765184 -0.736106 -1.021608 3.777907 -7.125000 0.000000 0.000000 90.127171 -2.076796 13.320078 -19.445533 27.206455 -4.287393 0.302133 -0.196447 3.316908 7.125000 0.000000 0.000000 
16.523550 17.580802 2.402559 -177.340863 2.539093 -172.012530 -11.227536 -20.328768 -31.054073 2.574405 6.782997 24.000308 -0.574391 3.816321 1.326441 0.765500 -5.587000 -15.590700 28.195024 3.190522 11.609615 -3.057078 -6.774675 22.415142 0.124739 4.350292 -0.599077 -0.385900 3.989100 -11.046000 0.974789 2.328835 6.792881 -4.461700 0.995303 -3.045446 1.478760 -2.744281 4.757511 0.671800 -1.517000 4.938300 -91.547024 6.325953 10.703159 14.867984 -15.297611 -1.743696 -0.745963 -0.961751 3.125366 -7.125000 0.000000 0.000000 90.254815 -2.186382 12.850627 -19.209143 26.890332 -4.177760 0.293758 -0.198113 3.790746 7.125000 0.000000 0.000000 
16.525748 17.584815 2.228006 -177.609115 2.376657 -171.970586 -11.770136 -20.326951 -30.893520 2.690047 6.979664 24.641420 -0.563689 3.759313 1.730714 1.023100 -6.434500 -18.050400 27.949194 3.479558 10.483210 -3.415228 -7.507362 24.793939 0.139052 4.192824 0.781969 -0.374000 3.927700 -10.873400 0.996706 2.211998 6.856932 -4.182939 0.947711 -2.956516 1.638914 -2.808148 4.668528 0.738800 -1.545200 4.926500 -91.623783 5.785270 10.221585 14.833916 -15.237578 -1.719458 -0.740152 -0.989314 2.957341 -7.125000 0.000000 0.000000 90.362173 -2.426301 12.260988 -19.072928 26.697706 -4.107371 0.291965 -0.197720 4.120229 7.125000 0.000000 0.000000 
16.519633 17.579082 2.047721 -177.716659 2.249342 -172.172039 -12.217910 -20.158620 -30.425210 2.800111 7.189658 25.277943 -0.527972 3.489401 2.035108 0.998800 -6.360000 -17.832600 27.788468 3.503375 9.592897 -3.787387 -8.216923 27.141751 0.138566 4.081811 2.302275 -0.515500 4.601700 -12.776000 0.654112 2.343126 6.722388 -4.243763 1.005544 -3.032867 1.674356 -3.079955 4.700767 0.714400 -1.672200 4.867800 -91.288488 5.643398 10.910403 14.712727 -15.045209 -1.686512 -0.751064 -1.003557 3.062284 -7.125000 0.000000 0.000000 90.798129 -3.065431 11.314832 -18.869606 26.408159 -4.009592 0.286208 -0.200533 4.338810 7.125000 0.000000 0.000000 
16.509124 17.574114 1.868869 -177.729768 2.312607 -172.261229 -12.539668 -19.833319 -30.093990 2.906738 7.400819 25.906351 -0.471533 3.007106 2.260459 0.679100 -5.269300 -14.678200 27.692622 3.824705 8.671987 -4.188027 -8.892246 29.450013 0.120496 4.120839 4.406409 -0.579300 4.873900 -13.549400 0.348840 2.595073 6.403500 -4.363397 1.119318 -3.144230 1.826016 -3.357434 4.681597 0.727400 -1.797900 4.771900 -90.884508 5.494132 11.966762 14.462605 -14.659519 -1.625587 -0.826275 -0.983519 3.361007 -7.125000 0.000000 0.000000 91.185657 -3.735293 10.455136 -18.582568 25.995189 -3.876776 0.276622 -0.203683 4.340932 7.125000 0.000000 0.000000 
16.498710 17.578987 1.694603 -177.700281 2.446048 -172.237471 -12.805650 -19.365191 -29.979204 3.010860 7.607410 26.522263 -0.405468 2.398726 2.405834 0.434200 -4.228400 -11.720200 27.657479 4.452511 7.593516 -4.626044 -9.551493 31.795470 0.053381 3.985611 6.992721 -0.474000 4.415400 -12.248400 0.213566 2.694903 6.131700 -4.450417 1.161385 -3.228038 1.936962 -3.419801 4.882483 0.746000 -1.820400 4.796300 -90.740933 5.344249 12.337617 14.345912 -14.467803 -1.591855 -0.823878 -0.974407 3.773870 -7.125000 0.000000 0.000000 91.389209 -4.210071 10.021577 -18.308199 25.597812 -3.753465 0.266494 -0.207996 4.417354 7.125000 0.000000 0.000000 
16.490493 17.585197 1.520719 -177.865599 2.705724 -172.399258 -13.329632 -18.789378 -29.603394 3.102286 7.789306 27.058446 -0.341076 1.771899 2.427079 0.344700 -3.772500 -10.437400 27.394349 5.163755 6.577408 -5.099915 -10.226553 34.254698 -0.083695 3.399588 9.588411 -0.325400 3.666500 -10.140200 0.038054 2.727420 6.330092 -4.427104 1.180041 -3.189402 2.195693 -3.372242 5.140659 0.832700 -1.784500 4.911500 -90.699262 4.939023 12.010842 14.338542 -14.455237 -1.584366 -0.798482 -0.931291 4.163719 -7.125000 0.000000 0.000000 91.503543 -4.435460 9.782305 -18.056317 25.243959 -3.643196 0.253545 -0.219607 4.670846 7.125000 0.000000 0.000000 
16.484952 17.587108 1.352950 -178.362820 2.942337 -172.612562 -14.191933 -18.438390 -29.000906 3.176131 7.918556 27.466661 -0.303947 1.393453 2.245829 0.302100 -3.534000 -9.769200 26.786980 5.990996 5.518121 -5.618002 -10.924006 36.856371 -0.262869 2.732891 11.907114 -0.227200 3.068000 -8.468200 -0.115083 2.684783 6.834997 -4.136545 1.174232 -3.006136 2.715132 -3.303008 5.036940 1.032200 -1.734000 4.945800 -90.735480 4.132293 11.790556 14.244524 -14.303834 -1.544517 -0.802275 -0.999147 4.669596 -7.125000 0.000000 0.000000 91.426477 -4.329558 9.861346 -17.770977 24.840770 -3.516168 0.248110 -0.224366 4.735285 7.125000 0.000000 0.000000 
16.481321 17.589783 1.187283 -178.928671 3.093951 -172.824815 -15.126071 -18.181072 -28.294813 3.223292 7.996779 27.719129 -0.279814 1.145817 1.967069 0.273800 -3.366000 -9.299600 26.097892 6.753606 4.381906 -6.174889 -11.621665 39.550120 -0.464913 2.226939 14.040803 -0.123000 2.260500 -6.226100 -0.094138 2.511668 7.182584 -3.701737 1.109204 -2.939653 2.736392 -3.140350 5.345366 1.082700 -1.657800 5.092400 -90.913026 3.596582 11.756537 14.256473 -14.320770 -1.539092 -0.805955 -1.223334 4.823125 -7.125000 0.000000 0.000000 91.138695 -4.185243 10.199150 -17.398171 24.300799 -3.351909 0.247996 -0.219383 5.021040 7.125000 0.000000 0.000000 
16.471481 17.602108 1.020278 -179.420587 3.383917 -172.899159 -15.955954 -17.871309 -27.633636 3.237800 8.036500 27.809164 -0.261594 0.980552 1.719194 0.253800 -3.241200 -8.951100 25.392172 7.453915 2.915624 -6.765163 -12.296009 42.286202 -0.702671 1.785772 16.202993 -0.051500 1.465100 -4.029600 -0.397978 2.508597 6.923828 -3.523744 1.112650 -3.169056 2.525929 -3.161159 5.920147 1.016600 -1.675500 5.240400 -90.834153 3.587391 12.133129 14.331219 -14.436484 -1.564575 -0.782273 -1.339881 4.557918 -7.125000 0.000000 0.000000 91.066774 -4.483908 10.342509 -17.006799 23.719854 -3.185089 0.242995 -0.220040 5.669563 7.125000 0.000000 0.000000 
16.461736 17.617776 0.857381 179.943208 3.546821 -172.928614 -16.915794 -17.621818 -26.925249 3.228330 8.027876 27.744488 -0.242564 0.791117 1.639178 0.194200 -2.838200 -7.828500 24.534703 8.102954 1.231803 -7.387182 -12.939915 45.027758 -0.915745 2.065258 18.180479 -0.047900 1.412700 -3.885000 -0.996260 2.511888 6.542185 -3.409110 1.114588 -3.432207 2.733379 -3.275103 6.165436 1.072100 -1.720200 5.261000 -90.585604 3.518741 12.834908 14.332004 -14.420968 -1.570023 -0.780515 -1.224037 4.298998 -7.125000 0.000000 0.000000 91.112345 -4.943284 10.596498 -16.721583 23.287321 -3.070821 0.236554 -0.220843 6.189236 7.125000 0.000000 0.000000 
